<?xml version="1.0" encoding="UTF-8"?>
<svg width="24px" height="24px" viewBox="0 0 24 24" version="1.1" xmlns="http://www.w3.org/2000/svg" xmlns:xlink="http://www.w3.org/1999/xlink">
    <title>ic_public_clean</title>
    <g id="ic_public_clean" stroke="none" stroke-width="1" fill="none" fill-rule="evenodd">
        <path d="M12.0186573,1.005 C13.2289878,1.005 14.2142468,1.96864593 14.2490487,3.17055226 L14.25,3.23634272 L14.25,8.505 C14.25,8.76859045 14.4539694,8.98454128 14.7126844,9.00362857 L14.75,9.005 L17.125,9.005 C18.6883907,9.005 19.9603233,10.2528804 19.9990896,11.8069331 L20,11.88 L20,20.255 C20,21.8863642 18.6978639,23.2135982 17.0762437,23.25405 L17,23.255 L3.78521073,23.255 C3.28373815,23.255 2.93489987,22.8578901 3.0102332,22.373053 C3.00995211,22.3268518 3.01501181,22.2803756 3.02456902,22.2347245 C3.03489924,22.1717135 3.08748587,22.0525883 3.15360128,21.9164325 L3.29535855,21.6329939 C3.36674447,21.4915012 3.43250741,21.3590339 3.46391972,21.2746755 L3.53544403,21.0804509 C3.73357036,20.5328846 3.97942892,19.7492206 3.9987806,18.7528383 L4,18.6271843 L4,11.8986573 C4,10.325121 5.25597853,9.04493422 6.82011624,9.00591629 L9.28731456,9.005 C9.55090501,9.005 9.76685585,8.80103055 9.78594313,8.54231559 L9.78731456,8.505 L9.78731456,3.23634272 C9.78731456,2.00400616 10.7863207,1.005 12.0186573,1.005 Z M18.5,13.754 L5.5,13.754 L5.5,18.6271843 C5.5,19.7561593 5.30949211,20.5900124 4.92347706,21.6518558 L4.88525,21.755 L7.813,21.755 L7.87766139,21.6491637 C7.9764562,21.4754936 8.07510457,21.2769303 8.16952432,21.0537758 C8.53669346,20.1859972 8.7586737,19.1498427 8.7586737,17.9457318 L8.7586737,15.505 C8.7586737,15.0907864 9.09446014,14.755 9.5086737,14.755 C9.92288727,14.755 10.2586737,15.0907864 10.2586737,15.505 L10.2586737,17.9457318 C10.2586737,19.3564979 9.99432913,20.5903997 9.5509569,21.6382791 L9.498,21.755 L12.813,21.755 L12.8776614,21.6491637 C12.9764562,21.4754936 13.0751046,21.2769303 13.1695243,21.0537758 C13.5366935,20.1859972 13.7586737,19.1498427 13.7586737,17.9457318 L13.7586737,15.505 C13.7586737,15.0907864 14.0944601,14.755 14.5086737,14.755 C14.9228873,14.755 15.2586737,15.0907864 15.2586737,15.505 L15.2586737,17.9457318 C15.2586737,19.3564979 14.9943291,20.5903997 14.5509569,21.6382791 L14.498,21.755 L17,21.755 C17.8095992,21.755 18.4693929,21.1136063 18.4989654,20.3112346 L18.5,20.255 L18.5,13.754 Z M12.0186573,2.505 C11.6291732,2.505 11.3108002,2.80946284 11.2885561,3.19337078 L11.2873146,3.23634272 L11.2873146,8.505 C11.2873146,9.58872857 10.4253551,10.4711357 9.3496094,10.5040483 L9.28731456,10.505 L6.89365728,10.505 C6.14228771,10.505 5.52979507,11.0996029 5.5010547,11.8439333 L5.5,11.8986573 L5.5,12.254 L18.5,12.254 L18.5,11.88 C18.5,11.1391302 17.914055,10.5351152 17.1803018,10.5060918 L17.125,10.505 L14.75,10.505 C13.6662714,10.505 12.7838643,9.64304056 12.7509517,8.56729483 L12.75,3.23634272 C12.75,2.83243329 12.4225667,2.505 12.0186573,2.505 Z" id="path-1" fill="#182431" fill-rule="nonzero"></path>
    </g>
</svg>