<?xml version="1.0" encoding="UTF-8"?>
<svg width="24px" height="24px" viewBox="0 0 24 24" version="1.1" xmlns="http://www.w3.org/2000/svg" xmlns:xlink="http://www.w3.org/1999/xlink">
    <title>ic_rank</title>
    <defs>
        <path d="M20.4930222,2.46526646 C20.7384821,2.46526646 20.9426305,2.64214162 20.9849665,2.87539083 L20.9930222,2.96526646 L20.9948064,3.97778718 L20.995,17.995 L22.3032994,17.995 C22.4341222,17.995 22.5597344,18.0462733 22.6531889,18.1378203 C22.8285355,18.309588 22.8505973,18.5787993 22.7176175,18.7750489 L22.660479,18.8448895 L20.3521797,21.2012834 C20.2581325,21.29729 20.1293955,21.3513938 19.995,21.3513938 C19.7495401,21.3513938 19.5453916,21.1745187 19.5030557,20.9412695 L19.495,20.8513938 L19.4940003,6.07626646 L18.0850003,6.07632277 C17.9593859,6.07632277 17.8383713,6.02903957 17.746029,5.94387786 C17.565589,5.7774689 17.5354294,5.50904418 17.6624386,5.30887875 L17.7174478,5.23734894 L20.1254671,2.62629263 C20.2201274,2.52365088 20.3533944,2.46526646 20.4930222,2.46526646 Z M12.995,17.995 C13.4092136,17.995 13.745,18.3307864 13.745,18.745 C13.745,19.1592136 13.4092136,19.495 12.995,19.495 L2.745,19.495 C2.33078644,19.495 1.995,19.1592136 1.995,18.745 C1.995,18.3307864 2.33078644,17.995 2.745,17.995 L12.995,17.995 Z M16.245,11.245 C16.6592136,11.245 16.995,11.5807864 16.995,11.995 C16.995,12.4092136 16.6592136,12.745 16.245,12.745 L2.745,12.745 C2.33078644,12.745 1.995,12.4092136 1.995,11.995 C1.995,11.5807864 2.33078644,11.245 2.745,11.245 L16.245,11.245 Z M12.995,4.495 C13.4092136,4.495 13.745,4.83078644 13.745,5.245 C13.745,5.65921356 13.4092136,5.995 12.995,5.995 L2.745,5.995 C2.33078644,5.995 1.995,5.65921356 1.995,5.245 C1.995,4.83078644 2.33078644,4.495 2.745,4.495 L12.995,4.495 Z" id="path-1"></path>
    </defs>
    <g id="ic_rank" stroke="none" stroke-width="1" fill="none" fill-rule="evenodd">
        <mask id="mask-2" fill="white">
            <use xlink:href="#path-1"></use>
        </mask>
        <use id="uxs-a" fill="#182431" xlink:href="#path-1"></use>
    </g>
</svg>